<svg xmlns="http://www.w3.org/2000/svg" viewBox="0 0 100 100" width="100%" height="100%">
  <defs>
    <style>
      .blue-stroke { fill: none; stroke: #007BFF; stroke-width: 3; stroke-linecap: round; stroke-linejoin: round; }
      .green-stroke { fill: none; stroke: #28a745; stroke-width: 4; stroke-linecap: round; stroke-linejoin: round; }
      .text-label { fill: #007BFF; font-family: 'Ubuntu', sans-serif; font-weight: bold; font-size: 7px; }
    </style>
  </defs>

  <path class="blue-stroke" d="M30,85 L70,85 M50,85 L50,30" />
  <path class="blue-stroke" d="M20,35 L80,35" /> <g transform="translate(10, 35)">
    <path class="blue-stroke" d="M0,0 L0,30 L20,30 L20,0 Z" />
    <line class="blue-stroke" x1="5" y1="8" x2="15" y2="8" stroke-width="1.5" />
    <line class="blue-stroke" x1="5" y1="15" x2="15" y2="15" stroke-width="1.5" />
    <line class="blue-stroke" x1="5" y1="22" x2="10" y2="22" stroke-width="1.5" />
    <text x="2" y="-5" class="text-label">CASH</text>
  </g>

  <g transform="translate(70, 35)">
    <path class="blue-stroke" d="M0,0 L0,30 L20,30 L20,0 Z" />
    <path class="blue-stroke" d="M5,10 L10,7 L15,10 M5,18 L15,18" stroke-width="1" />
    <line class="blue-stroke" x1="7" y1="10" x2="7" y2="18" stroke-width="1" />
    <line class="blue-stroke" x1="13" y1="10" x2="13" y2="18" stroke-width="1" />
    <text x="-2" y="-5" class="text-label">BANK</text>
  </g>

  <path class="blue-stroke" d="M35,50 Q50,60 65,50" stroke-dasharray="2,2" />
  <path class="blue-stroke" d="M65,40 Q50,30 35,40" stroke-dasharray="2,2" />

  <circle fill="white" cx="50" cy="35" r="8" />
  <path class="green-stroke" d="M45,35 L48,38 L55,32" />
</svg>